<?xml version="1.0" encoding="utf-8"?>
<!-- Generator: Adobe Illustrator 17.1.0, SVG Export Plug-In . SVG Version: 6.00 Build 0)  -->
<!DOCTYPE svg PUBLIC "-//W3C//DTD SVG 1.1//EN" "http://www.w3.org/Graphics/SVG/1.1/DTD/svg11.dtd">
<svg version="1.1" id="Layer_1" xmlns="http://www.w3.org/2000/svg" xmlns:xlink="http://www.w3.org/1999/xlink" x="0px" y="0px"
	 viewBox="0 0 18 18" enable-background="new 0 0 18 18" xml:space="preserve">
<g id="_x34_Ygsr4_1_">
	<g id="a2buRq_1_">
		<g>
			<path fill="#045797" d="M13.9,5.1c-0.6,3.6-1.5,7-3.5,10.1c-0.1,0.1-0.4,0.4-0.5,0.5c0.2-2.1,0.5-4.2,0.7-6.3
				c0.1-0.6,0.4-1.4,0.2-1.8c-0.4-0.7-0.1-1.5-0.3-2.2c-0.2-0.8-0.6-1.5-1.2-2c-1-1-1.6-2.2-2.2-3.5c2.4,0,4.7,0,7.1,0
				C14.5,0.3,14.1,4.1,13.9,5.1z"/>
			<path fill="#045797" d="M6.8,0C6.3,1.2,5.7,2.4,5.6,3.8C5.4,4.9,5.6,6,6.1,7.1c0.1,0.3,0.3,0.7,0.7,0.8C7.5,8,7.5,8.5,7.5,9.1
				c0,2.2,0.3,4.3,0.1,6.6c-0.8-0.9-1.3-1.8-1.8-2.8C4.5,10,3.8,7,3.5,3.8C3.5,3.2,3.2,0.6,3.2,0C4.4,0,5.6,0,6.8,0z"/>
			<path fill="#BDD973" d="M8.9,18C8.3,17.2,8,16.5,8,15.6c0-2.3-0.1-4.6-0.2-6.8c0-0.7-0.2-1.2-0.8-1.5C6,6.5,5.8,5.5,5.8,4.2
				c0.8,1.3,2.1,2,2.1,3.6C8.2,7,8.1,6.5,7.5,5.7C7,5,6.5,4.3,6.3,3.5C6,2.7,6.1,1.9,6.8,1.2C6.9,2.7,7.4,4,8.4,5.3
				C8.1,4.1,7.3,3.1,7.7,1.9c0.7,1.2,1.9,2,2.1,3.4c0.1,0.5,0.1,0.9,0,1.4c-0.1,0.4-0.3,0.9,0.5,0.8c0.2,0,0.2,0.2,0.1,0.4
				c-0.3,2.9-0.6,5.7-0.9,8.6C9.5,17.1,9.2,17.5,8.9,18z M8.4,10.8C8.4,10.8,8.4,10.8,8.4,10.8c0,0.7,0,1.3,0,2
				c0,0.2,0.1,0.3,0.3,0.4c0.2,0,0.3-0.2,0.3-0.3C9,11.5,9.2,10.3,9.3,9C9.4,8.5,9,8.5,8.7,8.5C8.3,8.4,8.4,8.7,8.4,9
				C8.3,9.6,8.4,10.2,8.4,10.8z M9.2,5.3c0,0.8,0.1,1.4-0.1,2C9,7.4,8.9,7.6,9.2,7.7c0.2,0,0.3-0.1,0.3-0.2C9.5,6.8,9.6,6.1,9.2,5.3
				z M8.7,16.8C9,16.2,8.9,15.7,9,15.3C9,15.1,8.9,15,8.8,15c-0.2,0-0.2,0.2-0.2,0.3C8.6,15.7,8.7,16.1,8.7,16.8z"/>
		</g>
	</g>
</g>
</svg>
